<?xml version="1.0" ?><svg height="20" version="1.1" viewBox="0 0 20 20" width="20" xmlns="http://www.w3.org/2000/svg"><g id="layer1"><path d="M 3.5 0 L 0 3.5 L 0 5 L 3 2 L 3 20 L 4 20 L 4 2 L 7 5 L 7 3.5 L 3.5 0 z M 11.638672 2 L 9.5253906 8.3417969 L 10.474609 8.6582031 L 11.027344 7 L 13.972656 7 L 14.525391 8.6582031 L 15.474609 8.3417969 L 13.359375 2 L 11.638672 2 z M 12.359375 3 L 12.638672 3 L 13.638672 6 L 11.359375 6 L 12.359375 3 z M 10 12 L 10 13 L 13.859375 13 L 10 17.824219 L 10 19 L 15 19 L 15 18 L 11.140625 18 L 15 13.175781 L 15 12 L 10 12 z " style="fill:#222222; fill-opacity:1; stroke:none; stroke-width:0px;"/></g></svg>